G04*
G04 #@! TF.GenerationSoftware,Altium Limited,CircuitStudio,1.5.2 (30)*
G04*
G04 Layer_Color=13948096*
%FSLAX42Y42*%
%MOMM*%
G71*
G01*
G75*
%ADD10C,0.25*%
D10*
X4135Y4295D02*
X4345Y4085D01*
X4135Y5935D02*
X4345Y6145D01*
X5735D02*
X5945Y5935D01*
X5735Y4085D02*
X5945Y4295D01*
X5385Y6145D02*
X5735D01*
X5945Y5580D02*
Y5930D01*
Y4295D02*
Y5590D01*
X5380Y4085D02*
X5730D01*
X4345D02*
X4695D01*
X4135Y4300D02*
Y5585D01*
Y5935D01*
X4350Y6145D02*
X4700D01*
X6338Y2392D02*
X6389Y2367D01*
X6440Y2316D01*
Y2265D01*
X6415Y2240D01*
X6364D01*
X6338Y2265D01*
Y2291D01*
X6364Y2316D01*
X6440D01*
X6262Y2342D02*
X6211D01*
X6186Y2316D01*
Y2240D01*
X6262D01*
X6288Y2265D01*
X6262Y2291D01*
X6186D01*
X5838Y2392D02*
X5889Y2367D01*
X5940Y2316D01*
Y2265D01*
X5915Y2240D01*
X5864D01*
X5838Y2265D01*
Y2291D01*
X5864Y2316D01*
X5940D01*
X5788Y2392D02*
Y2240D01*
X5711D01*
X5686Y2265D01*
Y2291D01*
Y2316D01*
X5711Y2342D01*
X5788D01*
X4838Y1842D02*
X4889Y1817D01*
X4940Y1766D01*
Y1715D01*
X4915Y1690D01*
X4864D01*
X4838Y1715D01*
Y1741D01*
X4864Y1766D01*
X4940D01*
X4686Y1792D02*
X4762D01*
X4788Y1766D01*
Y1715D01*
X4762Y1690D01*
X4686D01*
X6864Y2240D02*
Y2392D01*
X6940Y2316D01*
X6838D01*
X6762Y2342D02*
X6711D01*
X6686Y2316D01*
Y2240D01*
X6762D01*
X6788Y2265D01*
X6762Y2291D01*
X6686D01*
X6588Y1842D02*
X6690D01*
Y1766D01*
X6639Y1792D01*
X6614D01*
X6588Y1766D01*
Y1715D01*
X6614Y1690D01*
X6665D01*
X6690Y1715D01*
X6512Y1792D02*
X6461D01*
X6436Y1766D01*
Y1690D01*
X6512D01*
X6538Y1715D01*
X6512Y1741D01*
X6436D01*
X6114Y1690D02*
Y1842D01*
X6190Y1766D01*
X6088D01*
X6038Y1842D02*
Y1690D01*
X5961D01*
X5936Y1715D01*
Y1741D01*
Y1766D01*
X5961Y1792D01*
X6038D01*
X5588Y1842D02*
X5690D01*
Y1766D01*
X5639Y1792D01*
X5614D01*
X5588Y1766D01*
Y1715D01*
X5614Y1690D01*
X5665D01*
X5690Y1715D01*
X5538Y1842D02*
Y1690D01*
X5461D01*
X5436Y1715D01*
Y1741D01*
Y1766D01*
X5461Y1792D01*
X5538D01*
X5364Y2240D02*
Y2392D01*
X5440Y2316D01*
X5338D01*
X5186Y2342D02*
X5262D01*
X5288Y2316D01*
Y2265D01*
X5262Y2240D01*
X5186D01*
X4588Y2392D02*
X4690D01*
Y2316D01*
X4639Y2342D01*
X4614D01*
X4588Y2316D01*
Y2265D01*
X4614Y2240D01*
X4665D01*
X4690Y2265D01*
X4436Y2342D02*
X4512D01*
X4538Y2316D01*
Y2265D01*
X4512Y2240D01*
X4436D01*
X4338Y1842D02*
X4440D01*
Y1766D01*
X4389Y1792D01*
X4364D01*
X4338Y1766D01*
Y1715D01*
X4364Y1690D01*
X4415D01*
X4440Y1715D01*
X4186Y1842D02*
Y1690D01*
X4262D01*
X4288Y1715D01*
Y1766D01*
X4262Y1792D01*
X4186D01*
X4038Y2392D02*
X4089Y2367D01*
X4140Y2316D01*
Y2265D01*
X4115Y2240D01*
X4064D01*
X4038Y2265D01*
Y2291D01*
X4064Y2316D01*
X4140D01*
X3886Y2392D02*
Y2240D01*
X3962D01*
X3988Y2265D01*
Y2316D01*
X3962Y2342D01*
X3886D01*
X3814Y1690D02*
Y1842D01*
X3890Y1766D01*
X3788D01*
X3636Y1842D02*
Y1690D01*
X3712D01*
X3738Y1715D01*
Y1766D01*
X3712Y1792D01*
X3636D01*
X3538Y2392D02*
X3589Y2367D01*
X3640Y2316D01*
Y2265D01*
X3615Y2240D01*
X3564D01*
X3538Y2265D01*
Y2291D01*
X3564Y2316D01*
X3640D01*
X3411Y2240D02*
X3462D01*
X3488Y2265D01*
Y2316D01*
X3462Y2342D01*
X3411D01*
X3386Y2316D01*
Y2291D01*
X3488D01*
X3288Y1842D02*
X3390D01*
Y1766D01*
X3339Y1792D01*
X3314D01*
X3288Y1766D01*
Y1715D01*
X3314Y1690D01*
X3365D01*
X3390Y1715D01*
X3161Y1690D02*
X3212D01*
X3238Y1715D01*
Y1766D01*
X3212Y1792D01*
X3161D01*
X3136Y1766D01*
Y1741D01*
X3238D01*
X3064Y2240D02*
Y2392D01*
X3140Y2316D01*
X3038D01*
X2911Y2240D02*
X2962D01*
X2988Y2265D01*
Y2316D01*
X2962Y2342D01*
X2911D01*
X2886Y2316D01*
Y2291D01*
X2988D01*
X3140Y8567D02*
X3115Y8592D01*
X3064D01*
X3038Y8567D01*
Y8542D01*
X3064Y8516D01*
X3089D01*
X3064D01*
X3038Y8491D01*
Y8465D01*
X3064Y8440D01*
X3115D01*
X3140Y8465D01*
X2911Y8440D02*
X2962D01*
X2988Y8465D01*
Y8516D01*
X2962Y8542D01*
X2911D01*
X2886Y8516D01*
Y8491D01*
X2988D01*
X3288Y7890D02*
X3390D01*
X3288Y7992D01*
Y8017D01*
X3314Y8042D01*
X3365D01*
X3390Y8017D01*
X3161Y7890D02*
X3212D01*
X3238Y7915D01*
Y7966D01*
X3212Y7992D01*
X3161D01*
X3136Y7966D01*
Y7941D01*
X3238D01*
X3640Y8440D02*
X3589D01*
X3615D01*
Y8592D01*
X3640Y8567D01*
X3437Y8440D02*
X3488D01*
X3513Y8465D01*
Y8516D01*
X3488Y8542D01*
X3437D01*
X3411Y8516D01*
Y8491D01*
X3513D01*
X3890Y8017D02*
X3865Y8042D01*
X3814D01*
X3788Y8017D01*
Y7992D01*
X3814Y7966D01*
X3839D01*
X3814D01*
X3788Y7941D01*
Y7915D01*
X3814Y7890D01*
X3865D01*
X3890Y7915D01*
X3636Y8042D02*
Y7890D01*
X3712D01*
X3738Y7915D01*
Y7966D01*
X3712Y7992D01*
X3636D01*
X4140Y8440D02*
X4089D01*
X4115D01*
Y8592D01*
X4140Y8567D01*
X3911Y8592D02*
Y8440D01*
X3988D01*
X4013Y8465D01*
Y8516D01*
X3988Y8542D01*
X3911D01*
X4338Y7890D02*
X4440D01*
X4338Y7992D01*
Y8017D01*
X4364Y8042D01*
X4415D01*
X4440Y8017D01*
X4186Y8042D02*
Y7890D01*
X4262D01*
X4288Y7915D01*
Y7966D01*
X4262Y7992D01*
X4186D01*
X4588Y8440D02*
X4690D01*
X4588Y8542D01*
Y8567D01*
X4614Y8592D01*
X4665D01*
X4690Y8567D01*
X4436Y8542D02*
X4512D01*
X4538Y8516D01*
Y8465D01*
X4512Y8440D01*
X4436D01*
X5440Y8567D02*
X5415Y8592D01*
X5364D01*
X5338Y8567D01*
Y8542D01*
X5364Y8516D01*
X5389D01*
X5364D01*
X5338Y8491D01*
Y8465D01*
X5364Y8440D01*
X5415D01*
X5440Y8465D01*
X5186Y8542D02*
X5262D01*
X5288Y8516D01*
Y8465D01*
X5262Y8440D01*
X5186D01*
X5588Y7890D02*
X5690D01*
X5588Y7992D01*
Y8017D01*
X5614Y8042D01*
X5665D01*
X5690Y8017D01*
X5538Y8042D02*
Y7890D01*
X5461D01*
X5436Y7915D01*
Y7941D01*
Y7966D01*
X5461Y7992D01*
X5538D01*
X6190Y8017D02*
X6165Y8042D01*
X6114D01*
X6088Y8017D01*
Y7992D01*
X6114Y7966D01*
X6139D01*
X6114D01*
X6088Y7941D01*
Y7915D01*
X6114Y7890D01*
X6165D01*
X6190Y7915D01*
X6038Y8042D02*
Y7890D01*
X5961D01*
X5936Y7915D01*
Y7941D01*
Y7966D01*
X5961Y7992D01*
X6038D01*
X6588Y7890D02*
X6690D01*
X6588Y7992D01*
Y8017D01*
X6614Y8042D01*
X6665D01*
X6690Y8017D01*
X6512Y7992D02*
X6461D01*
X6436Y7966D01*
Y7890D01*
X6512D01*
X6538Y7915D01*
X6512Y7941D01*
X6436D01*
X6940Y8567D02*
X6915Y8592D01*
X6864D01*
X6838Y8567D01*
Y8542D01*
X6864Y8516D01*
X6889D01*
X6864D01*
X6838Y8491D01*
Y8465D01*
X6864Y8440D01*
X6915D01*
X6940Y8465D01*
X6762Y8542D02*
X6711D01*
X6686Y8516D01*
Y8440D01*
X6762D01*
X6788Y8465D01*
X6762Y8491D01*
X6686D01*
X4940Y7890D02*
X4889D01*
X4915D01*
Y8042D01*
X4940Y8017D01*
X4711Y7992D02*
X4788D01*
X4813Y7966D01*
Y7915D01*
X4788Y7890D01*
X4711D01*
X5940Y8440D02*
X5889D01*
X5915D01*
Y8592D01*
X5940Y8567D01*
X5813Y8592D02*
Y8440D01*
X5737D01*
X5711Y8465D01*
Y8491D01*
Y8516D01*
X5737Y8542D01*
X5813D01*
X6440Y8440D02*
X6389D01*
X6415D01*
Y8592D01*
X6440Y8567D01*
X6288Y8542D02*
X6237D01*
X6211Y8516D01*
Y8440D01*
X6288D01*
X6313Y8465D01*
X6288Y8491D01*
X6211D01*
X6188Y4592D02*
X6239Y4567D01*
X6290Y4516D01*
Y4465D01*
X6265Y4440D01*
X6214D01*
X6188Y4465D01*
Y4491D01*
X6214Y4516D01*
X6290D01*
X6188Y4842D02*
X6290D01*
Y4766D01*
X6239Y4792D01*
X6214D01*
X6188Y4766D01*
Y4715D01*
X6214Y4690D01*
X6265D01*
X6290Y4715D01*
X6214Y4940D02*
Y5092D01*
X6290Y5016D01*
X6188D01*
X6290Y5317D02*
X6265Y5342D01*
X6214D01*
X6188Y5317D01*
Y5292D01*
X6214Y5266D01*
X6239D01*
X6214D01*
X6188Y5241D01*
Y5215D01*
X6214Y5190D01*
X6265D01*
X6290Y5215D01*
X6188Y5440D02*
X6290D01*
X6188Y5542D01*
Y5567D01*
X6214Y5592D01*
X6265D01*
X6290Y5567D01*
X6240Y5690D02*
X6189D01*
X6215D01*
Y5842D01*
X6240Y5817D01*
X4514Y6340D02*
X4565D01*
X4590Y6365D01*
Y6416D01*
X4565Y6442D01*
X4514D01*
X4488Y6416D01*
Y6391D01*
X4590D01*
X4738Y6492D02*
Y6340D01*
X4815D01*
X4840Y6365D01*
Y6416D01*
X4815Y6442D01*
X4738D01*
X4988D02*
X5065D01*
X5090Y6416D01*
Y6365D01*
X5065Y6340D01*
X4988D01*
X5340Y6492D02*
Y6340D01*
X5264D01*
X5238Y6365D01*
Y6391D01*
Y6416D01*
X5264Y6442D01*
X5340D01*
X5565D02*
X5514D01*
X5488Y6416D01*
Y6340D01*
X5565D01*
X5590Y6365D01*
X5565Y6391D01*
X5488D01*
X4140Y7092D02*
Y6940D01*
X4064D01*
X4038Y6965D01*
Y7067D01*
X4064Y7092D01*
X4140D01*
X3988Y6940D02*
X3937D01*
X3962D01*
Y7042D01*
X3988D01*
X3861Y6940D02*
X3785D01*
X3759Y6965D01*
X3785Y6991D01*
X3835D01*
X3861Y7016D01*
X3835Y7042D01*
X3759D01*
X3708Y6889D02*
Y7042D01*
X3632D01*
X3607Y7016D01*
Y6965D01*
X3632Y6940D01*
X3708D01*
X3556D02*
X3505D01*
X3531D01*
Y7092D01*
X3556D01*
X3404Y7042D02*
X3353D01*
X3327Y7016D01*
Y6940D01*
X3404D01*
X3429Y6965D01*
X3404Y6991D01*
X3327D01*
X3277Y7042D02*
Y6965D01*
X3251Y6940D01*
X3175D01*
Y6915D01*
X3201Y6889D01*
X3226D01*
X3175Y6940D02*
Y7042D01*
X2972Y6940D02*
X2921D01*
X2947D01*
Y7092D01*
X2972Y7067D01*
X2845Y6940D02*
Y6965D01*
X2820D01*
Y6940D01*
X2845D01*
X2718Y7067D02*
X2693Y7092D01*
X2642D01*
X2616Y7067D01*
Y6965D01*
X2642Y6940D01*
X2693D01*
X2718Y6965D01*
Y7067D01*
X4438Y7392D02*
X4540D01*
Y7240D01*
X4438D01*
X4540Y7316D02*
X4489D01*
X4388Y7240D02*
X4337D01*
X4362D01*
Y7392D01*
X4388D01*
X4185Y7240D02*
X4235D01*
X4261Y7265D01*
Y7316D01*
X4235Y7342D01*
X4185D01*
X4159Y7316D01*
Y7291D01*
X4261D01*
X4007Y7342D02*
X4083D01*
X4108Y7316D01*
Y7265D01*
X4083Y7240D01*
X4007D01*
X3931Y7367D02*
Y7342D01*
X3956D01*
X3905D01*
X3931D01*
Y7265D01*
X3905Y7240D01*
X3829Y7342D02*
Y7240D01*
Y7291D01*
X3804Y7316D01*
X3778Y7342D01*
X3753D01*
X3651Y7240D02*
X3601D01*
X3575Y7265D01*
Y7316D01*
X3601Y7342D01*
X3651D01*
X3677Y7316D01*
Y7265D01*
X3651Y7240D01*
X3499Y7367D02*
Y7342D01*
X3524D01*
X3474D01*
X3499D01*
Y7265D01*
X3474Y7240D01*
X3372Y7342D02*
X3321D01*
X3296Y7316D01*
Y7240D01*
X3372D01*
X3397Y7265D01*
X3372Y7291D01*
X3296D01*
X3143Y7342D02*
X3220D01*
X3245Y7316D01*
Y7265D01*
X3220Y7240D01*
X3143D01*
X3067Y7367D02*
Y7342D01*
X3093D01*
X3042D01*
X3067D01*
Y7265D01*
X3042Y7240D01*
X2966D02*
X2915D01*
X2940D01*
Y7342D01*
X2966D01*
X2839Y7240D02*
X2788D01*
X2813D01*
Y7392D01*
X2839D01*
X2636Y7240D02*
X2686D01*
X2712Y7265D01*
Y7316D01*
X2686Y7342D01*
X2636D01*
X2610Y7316D01*
Y7291D01*
X2712D01*
M02*
