G04*
G04 #@! TF.GenerationSoftware,Altium Limited,CircuitStudio,1.5.2 (30)*
G04*
G04 Layer_Color=8150272*
%FSLAX42Y42*%
%MOMM*%
G71*
G01*
G75*
%ADD17C,1.85*%
%ADD18R,1.73X1.73*%
%ADD19C,1.85*%
%ADD20R,1.80X1.80*%
%ADD21C,1.73*%
%ADD22C,1.60*%
%ADD23P,1.41X8X22.5*%
%ADD24C,0.12*%
%ADD25P,2.00X4X90.0*%
D17*
X2240Y3200D02*
D03*
Y4470D02*
D03*
Y4724D02*
D03*
Y4978D02*
D03*
Y5232D02*
D03*
Y5486D02*
D03*
Y5740D02*
D03*
Y5994D02*
D03*
Y6248D02*
D03*
Y6502D02*
D03*
Y6756D02*
D03*
Y7010D02*
D03*
Y4216D02*
D03*
Y3962D02*
D03*
Y3708D02*
D03*
Y3454D02*
D03*
D18*
X7560Y7550D02*
D03*
D19*
X7620Y2032D02*
D03*
X7366D02*
D03*
X7112D02*
D03*
X6858D02*
D03*
X6604D02*
D03*
X6350D02*
D03*
X6096D02*
D03*
X5842D02*
D03*
X5588D02*
D03*
X4826D02*
D03*
X4572D02*
D03*
X4318D02*
D03*
X4064D02*
D03*
X3810D02*
D03*
X3556D02*
D03*
X3302D02*
D03*
X3048D02*
D03*
X2794D02*
D03*
X2540Y8228D02*
D03*
X2794D02*
D03*
X3048D02*
D03*
X3302D02*
D03*
X3556D02*
D03*
X3810D02*
D03*
X4064D02*
D03*
X4318D02*
D03*
X4572D02*
D03*
X5334D02*
D03*
X5588D02*
D03*
X5842D02*
D03*
X6096D02*
D03*
X6350D02*
D03*
X6604D02*
D03*
X6858D02*
D03*
X7112D02*
D03*
X7366D02*
D03*
D20*
X5334Y2032D02*
D03*
X2540D02*
D03*
X4826Y8228D02*
D03*
X7620D02*
D03*
D21*
X5810Y3165D02*
D03*
Y7140D02*
D03*
X7560Y3165D02*
D03*
Y7140D02*
D03*
D22*
X4540Y5740D02*
D03*
X5040Y5490D02*
D03*
X5290D02*
D03*
X4540Y5240D02*
D03*
X4790D02*
D03*
X5040D02*
D03*
X5290D02*
D03*
X5540D02*
D03*
Y4990D02*
D03*
Y4740D02*
D03*
X5290D02*
D03*
Y4990D02*
D03*
X5040Y4740D02*
D03*
X4790Y4490D02*
D03*
X4540D02*
D03*
X4790Y4740D02*
D03*
X4540D02*
D03*
X5040Y4990D02*
D03*
X4790D02*
D03*
X4540D02*
D03*
X4790Y5490D02*
D03*
X4540D02*
D03*
X5540D02*
D03*
Y5740D02*
D03*
X5290D02*
D03*
X5040D02*
D03*
Y4490D02*
D03*
X5290D02*
D03*
X5540D02*
D03*
X4790Y5740D02*
D03*
D23*
X5665Y5115D02*
D03*
X4415D02*
D03*
D24*
Y5865D02*
X4665D01*
X4915D01*
X5165D01*
X5415D01*
X5665D01*
X4415Y5615D02*
Y5865D01*
X4665Y5615D02*
Y5865D01*
X4915Y5615D02*
Y5865D01*
X5165Y5615D02*
Y5865D01*
X5415Y5615D02*
Y5865D01*
X5665Y5615D02*
Y5865D01*
Y5365D02*
Y5615D01*
X5415Y5365D02*
Y5615D01*
X5165Y5365D02*
Y5615D01*
X4915Y5365D02*
Y5615D01*
X4665Y5365D02*
Y5615D01*
X4415Y5365D02*
Y5615D01*
X5415D02*
X5665D01*
X5165D02*
X5415D01*
X4915D02*
X5165D01*
X4665D02*
X4915D01*
X4415D02*
X4665D01*
X5665Y5115D02*
Y5365D01*
X5415Y5115D02*
Y5365D01*
X5165Y5115D02*
Y5365D01*
X4915Y5115D02*
Y5365D01*
X4665Y5115D02*
Y5365D01*
X4415Y5115D02*
Y5365D01*
X5415D02*
X5665D01*
X5165D02*
X5415D01*
X4915D02*
X5165D01*
X4665D02*
X4915D01*
X4415D02*
X4665D01*
X5665Y4865D02*
Y5115D01*
X5415Y4865D02*
Y5115D01*
X5165Y4865D02*
Y5115D01*
X4915Y4865D02*
Y5115D01*
X4665Y4865D02*
Y5115D01*
X4415Y4865D02*
Y5115D01*
X5415D02*
X5665D01*
X5165D02*
X5415D01*
X4915D02*
X5165D01*
X4665D02*
X4915D01*
X4415D02*
X4665D01*
X5665Y4615D02*
Y4865D01*
X5415Y4615D02*
Y4865D01*
X5165Y4615D02*
Y4865D01*
X4915Y4615D02*
Y4865D01*
X4665Y4615D02*
Y4865D01*
X4415Y4615D02*
Y4865D01*
X5415D02*
X5665D01*
X5165D02*
X5415D01*
X4915D02*
X5165D01*
X4665D02*
X4915D01*
X4415D02*
X4665D01*
X5665Y4365D02*
Y4615D01*
X5415Y4365D02*
Y4615D01*
X5165Y4365D02*
Y4615D01*
X4915Y4365D02*
Y4615D01*
X4665Y4365D02*
Y4615D01*
X4415Y4365D02*
Y4615D01*
X5415D02*
X5665D01*
X5165D02*
X5415D01*
X4915D02*
X5165D01*
X4665D02*
X4915D01*
X4415D02*
X4665D01*
X5415Y4365D02*
X5665D01*
X5165D02*
X5415D01*
X4915D02*
X5165D01*
X4665D02*
X4915D01*
X4415D02*
X4665D01*
D25*
X5665Y5865D02*
D03*
X5415D02*
D03*
X5165D02*
D03*
X4915D02*
D03*
X4665D02*
D03*
X4415D02*
D03*
Y5615D02*
D03*
X4665D02*
D03*
X4915D02*
D03*
X5165D02*
D03*
X5415D02*
D03*
X5665D02*
D03*
X4415Y5365D02*
D03*
X4665D02*
D03*
X4915D02*
D03*
X5165D02*
D03*
X5415D02*
D03*
X5665D02*
D03*
X4415Y5115D02*
D03*
X4665D02*
D03*
X4915D02*
D03*
X5165D02*
D03*
X5415D02*
D03*
X5665D02*
D03*
X4415Y4865D02*
D03*
X4665D02*
D03*
X4915D02*
D03*
X5165D02*
D03*
X5415D02*
D03*
X5665D02*
D03*
X4415Y4615D02*
D03*
X4665D02*
D03*
X4915D02*
D03*
X5165D02*
D03*
X5415D02*
D03*
X5665D02*
D03*
X4415Y4365D02*
D03*
X4665D02*
D03*
X4915D02*
D03*
X5165D02*
D03*
X5415D02*
D03*
X5665D02*
D03*
M02*
