G04*
G04 #@! TF.GenerationSoftware,Altium Limited,CircuitStudio,1.5.2 (30)*
G04*
G04 Layer_Color=16755269*
%FSLAX42Y42*%
%MOMM*%
G71*
G01*
G75*
%ADD26C,0.20*%
D26*
X4127Y4830D02*
Y5150D01*
X3972Y4770D02*
Y5150D01*
X3973Y5480D02*
Y5800D01*
X4127Y5480D02*
Y5860D01*
X4010Y3955D02*
X4160D01*
X4196Y2881D02*
Y3999D01*
Y2881D02*
X4685D01*
Y3999D01*
X4196D02*
X4685D01*
X5475Y3310D02*
Y3460D01*
X5431Y3495D02*
X6549D01*
Y3984D01*
X5431D02*
X6549D01*
X5431Y3495D02*
Y3984D01*
X6993Y4354D02*
X7687D01*
Y3326D02*
Y4354D01*
X6993Y3326D02*
X7687D01*
X6993D02*
Y4354D01*
X6777Y4352D02*
X6958D01*
X2893Y4354D02*
X3587D01*
Y3326D02*
Y4354D01*
X2893Y3326D02*
X3587D01*
X2893D02*
Y4354D01*
X2677Y4352D02*
X2858D01*
X3155Y5465D02*
X3525D01*
Y4815D02*
Y5465D01*
X3155Y4815D02*
X3525D01*
X3155D02*
Y5465D01*
X2972Y5490D02*
X3120D01*
X2893Y5926D02*
X3587D01*
X2893D02*
Y6954D01*
X3587D01*
Y5926D02*
Y6954D01*
X3622Y5928D02*
X3803D01*
X5334Y2159D02*
X7767D01*
Y1905D02*
Y2159D01*
X5187Y1905D02*
X7767D01*
X5187D02*
Y2032D01*
X2540Y2159D02*
X4973D01*
Y1905D02*
Y2159D01*
X2393Y1905D02*
X4973D01*
X2393D02*
Y2032D01*
Y8101D02*
X4826D01*
X2393D02*
Y8355D01*
X4973D01*
Y8228D02*
Y8355D01*
X5187Y8101D02*
X7620D01*
X5187D02*
Y8355D01*
X7767D01*
Y8228D02*
Y8355D01*
X4010Y7355D02*
X4160D01*
X4196Y6281D02*
Y7399D01*
Y6281D02*
X4685D01*
Y7399D01*
X4196D02*
X4685D01*
X6993Y5926D02*
X7687D01*
X6993D02*
Y6954D01*
X7687D01*
Y5926D02*
Y6954D01*
X7722Y5928D02*
X7903D01*
X6505Y6820D02*
Y6970D01*
X5431Y6785D02*
X6549D01*
X5431Y6296D02*
Y6785D01*
Y6296D02*
X6549D01*
Y6785D01*
M02*
