G04*
G04 #@! TF.GenerationSoftware,Altium Limited,CircuitStudio,1.5.2 (30)*
G04*
G04 Layer_Color=15065295*
%FSLAX42Y42*%
%MOMM*%
G71*
G01*
G75*
%ADD10C,0.25*%
D10*
X7340Y7422D02*
Y7321D01*
X7391Y7270D01*
X7442Y7321D01*
Y7422D01*
X7594Y7397D02*
X7569Y7422D01*
X7518D01*
X7492Y7397D01*
Y7295D01*
X7518Y7270D01*
X7569D01*
X7594Y7295D01*
X7746Y7397D02*
X7721Y7422D01*
X7670D01*
X7645Y7397D01*
Y7295D01*
X7670Y7270D01*
X7721D01*
X7746Y7295D01*
X3793Y5002D02*
X3768Y4976D01*
Y4925D01*
X3793Y4900D01*
X3895D01*
X3920Y4925D01*
Y4976D01*
X3895Y5002D01*
X3920Y5052D02*
Y5103D01*
Y5078D01*
X3768D01*
X3793Y5052D01*
X3803Y5632D02*
X3778Y5606D01*
Y5555D01*
X3803Y5530D01*
X3905D01*
X3930Y5555D01*
Y5606D01*
X3905Y5632D01*
X3803Y5682D02*
X3778Y5708D01*
Y5759D01*
X3803Y5784D01*
X3905D01*
X3930Y5759D01*
Y5708D01*
X3905Y5682D01*
X3803D01*
X4340Y4040D02*
Y4192D01*
X4416D01*
X4442Y4167D01*
Y4116D01*
X4416Y4091D01*
X4340D01*
X4391D02*
X4442Y4040D01*
X4492D02*
X4543D01*
X4518D01*
Y4192D01*
X4492Y4167D01*
X5370Y3630D02*
X5218D01*
Y3706D01*
X5243Y3732D01*
X5294D01*
X5319Y3706D01*
Y3630D01*
Y3681D02*
X5370Y3732D01*
X5243Y3782D02*
X5218Y3808D01*
Y3859D01*
X5243Y3884D01*
X5268D01*
X5294Y3859D01*
Y3833D01*
Y3859D01*
X5319Y3884D01*
X5345D01*
X5370Y3859D01*
Y3808D01*
X5345Y3782D01*
X7220Y4552D02*
Y4400D01*
X7296D01*
X7322Y4425D01*
Y4527D01*
X7296Y4552D01*
X7220D01*
X7372Y4527D02*
X7398Y4552D01*
X7449D01*
X7474Y4527D01*
Y4502D01*
X7449Y4476D01*
X7423D01*
X7449D01*
X7474Y4451D01*
Y4425D01*
X7449Y4400D01*
X7398D01*
X7372Y4425D01*
X3070Y4542D02*
Y4390D01*
X3146D01*
X3172Y4415D01*
Y4517D01*
X3146Y4542D01*
X3070D01*
X3222Y4390D02*
X3273D01*
X3248D01*
Y4542D01*
X3222Y4517D01*
X3590Y4600D02*
Y4448D01*
X3514D01*
X3488Y4473D01*
Y4524D01*
X3514Y4549D01*
X3590D01*
X3539D02*
X3488Y4600D01*
X3361D02*
Y4448D01*
X3438Y4524D01*
X3336D01*
X3130Y5642D02*
X3181D01*
X3155D01*
Y5490D01*
X3130D01*
X3181D01*
X3359Y5617D02*
X3333Y5642D01*
X3282D01*
X3257Y5617D01*
Y5515D01*
X3282Y5490D01*
X3333D01*
X3359Y5515D01*
X3409Y5490D02*
X3460D01*
X3435D01*
Y5642D01*
X3409Y5617D01*
X3320Y5748D02*
Y5900D01*
X3244D01*
X3218Y5875D01*
Y5773D01*
X3244Y5748D01*
X3320D01*
X3168Y5773D02*
X3142Y5748D01*
X3091D01*
X3066Y5773D01*
Y5875D01*
X3091Y5900D01*
X3142D01*
X3168Y5875D01*
Y5773D01*
X2202Y7362D02*
X2151D01*
X2176D01*
Y7235D01*
X2151Y7210D01*
X2125D01*
X2100Y7235D01*
X2252Y7210D02*
Y7362D01*
X2329D01*
X2354Y7337D01*
Y7286D01*
X2329Y7261D01*
X2252D01*
X2405Y7210D02*
X2455D01*
X2430D01*
Y7362D01*
X2405Y7337D01*
X5272Y2382D02*
X5221D01*
X5246D01*
Y2255D01*
X5221Y2230D01*
X5195D01*
X5170Y2255D01*
X5322Y2230D02*
X5373D01*
X5348D01*
Y2382D01*
X5322Y2357D01*
X2492Y2382D02*
X2441D01*
X2466D01*
Y2255D01*
X2441Y2230D01*
X2415D01*
X2390Y2255D01*
X2542Y2357D02*
X2568Y2382D01*
X2619D01*
X2644Y2357D01*
Y2255D01*
X2619Y2230D01*
X2568D01*
X2542Y2255D01*
Y2357D01*
X2492Y8592D02*
X2441D01*
X2466D01*
Y8465D01*
X2441Y8440D01*
X2415D01*
X2390Y8465D01*
X2542Y8567D02*
X2568Y8592D01*
X2619D01*
X2644Y8567D01*
Y8542D01*
X2619Y8516D01*
X2593D01*
X2619D01*
X2644Y8491D01*
Y8465D01*
X2619Y8440D01*
X2568D01*
X2542Y8465D01*
X5272Y8572D02*
X5221D01*
X5246D01*
Y8445D01*
X5221Y8420D01*
X5195D01*
X5170Y8445D01*
X5424Y8420D02*
X5322D01*
X5424Y8522D01*
Y8547D01*
X5399Y8572D01*
X5348D01*
X5322Y8547D01*
X4320Y7430D02*
Y7582D01*
X4396D01*
X4422Y7557D01*
Y7506D01*
X4396Y7481D01*
X4320D01*
X4371D02*
X4422Y7430D01*
X4472Y7557D02*
X4498Y7582D01*
X4549D01*
X4574Y7557D01*
Y7455D01*
X4549Y7430D01*
X4498D01*
X4472Y7455D01*
Y7557D01*
X6440Y7472D02*
X6491D01*
X6465D01*
Y7320D01*
X6440D01*
X6491D01*
X6669Y7447D02*
X6643Y7472D01*
X6592D01*
X6567Y7447D01*
Y7345D01*
X6592Y7320D01*
X6643D01*
X6669Y7345D01*
X6719Y7447D02*
X6745Y7472D01*
X6795D01*
X6821Y7447D01*
Y7345D01*
X6795Y7320D01*
X6745D01*
X6719Y7345D01*
Y7447D01*
X7450Y5738D02*
Y5890D01*
X7374D01*
X7348Y5865D01*
Y5763D01*
X7374Y5738D01*
X7450D01*
X7196Y5890D02*
X7298D01*
X7196Y5788D01*
Y5763D01*
X7221Y5738D01*
X7272D01*
X7298Y5763D01*
X6580Y6720D02*
X6732D01*
Y6644D01*
X6707Y6618D01*
X6656D01*
X6631Y6644D01*
Y6720D01*
Y6669D02*
X6580Y6618D01*
Y6466D02*
Y6568D01*
X6682Y6466D01*
X6707D01*
X6732Y6491D01*
Y6542D01*
X6707Y6568D01*
M02*
