G04*
G04 #@! TF.GenerationSoftware,Altium Limited,CircuitStudio,1.5.2 (30)*
G04*
G04 Layer_Color=20142*
%FSLAX42Y42*%
%MOMM*%
G71*
G01*
G75*
%ADD11R,1.50X1.90*%
%ADD12R,1.71X0.90*%
%ADD13R,0.90X1.71*%
%ADD14R,2.00X0.85*%
%ADD15R,0.95X0.85*%
%ADD16R,1.68X0.65*%
%ADD17C,1.85*%
%ADD18R,1.73X1.73*%
%ADD19C,1.85*%
%ADD20R,1.80X1.80*%
%ADD21C,1.73*%
%ADD22C,1.60*%
%ADD23P,1.41X8X22.5*%
D11*
X4050Y5125D02*
D03*
Y4855D02*
D03*
X4050Y5505D02*
D03*
Y5775D02*
D03*
D12*
X4795Y3884D02*
D03*
Y3757D02*
D03*
Y3630D02*
D03*
Y3503D02*
D03*
Y3376D02*
D03*
Y3249D02*
D03*
Y3122D02*
D03*
Y2995D02*
D03*
X4085D02*
D03*
Y3122D02*
D03*
Y3249D02*
D03*
Y3376D02*
D03*
Y3503D02*
D03*
Y3630D02*
D03*
Y3757D02*
D03*
Y3884D02*
D03*
X4795Y7285D02*
D03*
Y7158D02*
D03*
Y7031D02*
D03*
Y6904D02*
D03*
Y6777D02*
D03*
Y6650D02*
D03*
Y6523D02*
D03*
Y6396D02*
D03*
X4085D02*
D03*
Y6523D02*
D03*
Y6650D02*
D03*
Y6777D02*
D03*
Y6904D02*
D03*
Y7031D02*
D03*
Y7158D02*
D03*
Y7285D02*
D03*
D13*
X5545Y4095D02*
D03*
X5672D02*
D03*
X5799D02*
D03*
X5926D02*
D03*
X6053D02*
D03*
X6180D02*
D03*
X6307D02*
D03*
X6434D02*
D03*
Y3385D02*
D03*
X6307D02*
D03*
X6180D02*
D03*
X6053D02*
D03*
X5926D02*
D03*
X5799D02*
D03*
X5672D02*
D03*
X5545D02*
D03*
X6434Y6185D02*
D03*
X6307D02*
D03*
X6180D02*
D03*
X6053D02*
D03*
X5926D02*
D03*
X5799D02*
D03*
X5672D02*
D03*
X5545D02*
D03*
Y6895D02*
D03*
X5672D02*
D03*
X5799D02*
D03*
X5926D02*
D03*
X6053D02*
D03*
X6180D02*
D03*
X6307D02*
D03*
X6434D02*
D03*
D14*
X6868Y4285D02*
D03*
Y4158D02*
D03*
Y4031D02*
D03*
Y3904D02*
D03*
Y3777D02*
D03*
Y3650D02*
D03*
Y3523D02*
D03*
Y3396D02*
D03*
X7812D02*
D03*
Y3523D02*
D03*
Y3650D02*
D03*
Y3777D02*
D03*
Y3904D02*
D03*
Y4031D02*
D03*
Y4158D02*
D03*
Y4285D02*
D03*
X2768D02*
D03*
Y4158D02*
D03*
Y4031D02*
D03*
Y3904D02*
D03*
Y3777D02*
D03*
Y3650D02*
D03*
Y3523D02*
D03*
Y3396D02*
D03*
X3712D02*
D03*
Y3523D02*
D03*
Y3650D02*
D03*
Y3777D02*
D03*
Y3904D02*
D03*
Y4031D02*
D03*
Y4158D02*
D03*
Y4285D02*
D03*
Y5996D02*
D03*
Y6123D02*
D03*
Y6250D02*
D03*
Y6377D02*
D03*
Y6504D02*
D03*
Y6631D02*
D03*
Y6758D02*
D03*
Y6885D02*
D03*
X2768D02*
D03*
Y6758D02*
D03*
Y6631D02*
D03*
Y6504D02*
D03*
Y6377D02*
D03*
Y6250D02*
D03*
Y6123D02*
D03*
Y5996D02*
D03*
X7812Y5996D02*
D03*
Y6123D02*
D03*
Y6250D02*
D03*
Y6377D02*
D03*
Y6504D02*
D03*
Y6631D02*
D03*
Y6758D02*
D03*
Y6885D02*
D03*
X6868D02*
D03*
Y6758D02*
D03*
Y6631D02*
D03*
Y6504D02*
D03*
Y6377D02*
D03*
Y6250D02*
D03*
Y6123D02*
D03*
Y5996D02*
D03*
D15*
X3285Y4690D02*
D03*
X3395D02*
D03*
D16*
X3046Y5433D02*
D03*
Y5368D02*
D03*
Y5303D02*
D03*
Y5238D02*
D03*
Y5173D02*
D03*
Y5107D02*
D03*
Y5042D02*
D03*
Y4977D02*
D03*
Y4912D02*
D03*
Y4847D02*
D03*
X3634D02*
D03*
Y4912D02*
D03*
Y4977D02*
D03*
Y5042D02*
D03*
Y5107D02*
D03*
Y5173D02*
D03*
Y5238D02*
D03*
Y5303D02*
D03*
Y5368D02*
D03*
Y5433D02*
D03*
D17*
X2240Y3200D02*
D03*
Y4470D02*
D03*
Y4724D02*
D03*
Y4978D02*
D03*
Y5232D02*
D03*
Y5486D02*
D03*
Y5740D02*
D03*
Y5994D02*
D03*
Y6248D02*
D03*
Y6502D02*
D03*
Y6756D02*
D03*
Y7010D02*
D03*
Y4216D02*
D03*
Y3962D02*
D03*
Y3708D02*
D03*
Y3454D02*
D03*
D18*
X7560Y7550D02*
D03*
D19*
X7620Y2032D02*
D03*
X7366D02*
D03*
X7112D02*
D03*
X6858D02*
D03*
X6604D02*
D03*
X6350D02*
D03*
X6096D02*
D03*
X5842D02*
D03*
X5588D02*
D03*
X4826D02*
D03*
X4572D02*
D03*
X4318D02*
D03*
X4064D02*
D03*
X3810D02*
D03*
X3556D02*
D03*
X3302D02*
D03*
X3048D02*
D03*
X2794D02*
D03*
X2540Y8228D02*
D03*
X2794D02*
D03*
X3048D02*
D03*
X3302D02*
D03*
X3556D02*
D03*
X3810D02*
D03*
X4064D02*
D03*
X4318D02*
D03*
X4572D02*
D03*
X5334D02*
D03*
X5588D02*
D03*
X5842D02*
D03*
X6096D02*
D03*
X6350D02*
D03*
X6604D02*
D03*
X6858D02*
D03*
X7112D02*
D03*
X7366D02*
D03*
D20*
X5334Y2032D02*
D03*
X2540D02*
D03*
X4826Y8228D02*
D03*
X7620D02*
D03*
D21*
X5810Y3165D02*
D03*
Y7140D02*
D03*
X7560Y3165D02*
D03*
Y7140D02*
D03*
D22*
X4540Y5740D02*
D03*
X5040Y5490D02*
D03*
X5290D02*
D03*
X4540Y5240D02*
D03*
X4790D02*
D03*
X5040D02*
D03*
X5290D02*
D03*
X5540D02*
D03*
Y4990D02*
D03*
Y4740D02*
D03*
X5290D02*
D03*
Y4990D02*
D03*
X5040Y4740D02*
D03*
X4790Y4490D02*
D03*
X4540D02*
D03*
X4790Y4740D02*
D03*
X4540D02*
D03*
X5040Y4990D02*
D03*
X4790D02*
D03*
X4540D02*
D03*
X4790Y5490D02*
D03*
X4540D02*
D03*
X5540D02*
D03*
Y5740D02*
D03*
X5290D02*
D03*
X5040D02*
D03*
Y4490D02*
D03*
X5290D02*
D03*
X5540D02*
D03*
X4790Y5740D02*
D03*
D23*
X5665Y5115D02*
D03*
X4415D02*
D03*
M02*
